<?xml version="1.0" standalone="no"?><!DOCTYPE svg PUBLIC "-//W3C//DTD SVG 1.1//EN" "http://www.w3.org/Graphics/SVG/1.1/DTD/svg11.dtd"><svg t="1515550854882" class="icon" style="" viewBox="0 0 1024 1024" version="1.1" xmlns="http://www.w3.org/2000/svg" p-id="4019" xmlns:xlink="http://www.w3.org/1999/xlink" width="128" height="128"><defs><style type="text/css"></style></defs><path d="M457.328331 78.234829c163.388231-18.816554 279.567253 40.169885 364.441293 126.762055 71.482031 72.928986 141.328819 185.52439 126.762055 352.557638-18.941398 217.199811-195.727777 373.390106-388.208603 392.170844-226.366587 22.089088-461.651288-125.938294-487.243153-388.209626-11.968589-122.657574 40.145325-250.190179 75.265194-301.060777C209.304492 172.157965 314.594513 94.672196 457.328331 78.234829zM568.245514 216.881562c-34.011628 1.64036-76.646658-5.342682-99.033527 7.922437-29.874401-33.509185-42.011836-84.750219-79.226412-110.917182-14.705933 73.891917-91.153046 177.338964-102.993722 265.408789C271.694447 493.063719 350.198405 516.599761 425.637562 545.670867c-28.798906 39.876196-78.126358 80.310094-79.226412 134.685515 22.334681-15.957437 39.07597-37.508265 67.342758-47.535643-13.967106 40.168862-16.487509 91.785449-35.651988 126.762055-126.346593-33.42732-153.620773-165.927053-257.486352-221.834364 15.764032 67.782779 63.303768 142.720515 110.917182 194.105836 34.444487 37.174668 90.336448 73.310679 142.606929 83.187631-10.558473 22.452361-3.440355 62.579267-15.844873 83.187631 34.443463-7.861038 55.162344-55.416124 110.917182-63.381539 98.338702-14.049994 157.74879 14.058181 178.25994 71.303976 34.239825-66.237587 26.202779-208.257138 11.883655-277.292444 26.931373 7.91425 41.564651 47.527456 63.381539 47.535643-8.758478-63.86454-52.154847-93.095281-75.265194-142.607952 72.752977-22.267143 137.949862-61.652152 118.839619-162.414043-5.812379-30.641881-38.856983-88.723717-63.381539-134.684492-29.442566-55.183833-61.009516-108.429525-79.226412-130.724297C604.858386 142.579299 591.059102 184.239118 568.245514 216.881562z" p-id="4020"></path></svg>